<?xml version="1.0" standalone="no"?>
<!DOCTYPE svg PUBLIC "-//W3C//DTD SVG 1.1//EN" "http://www.w3.org/Graphics/SVG/1.1/DTD/svg11.dtd" >
<!--
2013-9-30: Created.
-->
<svg>
<metadata>
Created by iconfont
</metadata>
<defs>

<font id="iconfont" horiz-adv-x="1024" >
  <font-face
    font-family="iconfont"
    font-weight="500"
    font-stretch="normal"
    units-per-em="1024"
    ascent="896"
    descent="-128"
  />
    <missing-glyph />
    
    <glyph glyph-name="x" unicode="x" horiz-adv-x="1001"
d="M281 543q-27 -1 -53 -1h-83q-18 0 -36.5 -6t-32.5 -18.5t-23 -32t-9 -45.5v-76h912v41q0 16 -0.5 30t-0.5 18q0 13 -5 29t-17 29.5t-31.5 22.5t-49.5 9h-133v-97h-438v97zM955 310v-52q0 -23 0.5 -52t0.5 -58t-10.5 -47.5t-26 -30t-33 -16t-31.5 -4.5q-14 -1 -29.5 -0.5
t-29.5 0.5h-32l-45 128h-439l-44 -128h-29h-34q-20 0 -45 1q-25 0 -41 9.5t-25.5 23t-13.5 29.5t-4 30v167h911zM163 247q-12 0 -21 -8.5t-9 -21.5t9 -21.5t21 -8.5q13 0 22 8.5t9 21.5t-9 21.5t-22 8.5zM316 123q-8 -26 -14 -48q-5 -19 -10.5 -37t-7.5 -25t-3 -15t1 -14.5
t9.5 -10.5t21.5 -4h37h67h81h80h64h36q23 0 34 12t2 38q-5 13 -9.5 30.5t-9.5 34.5q-5 19 -11 39h-368zM336 498v228q0 11 2.5 23t10 21.5t20.5 15.5t34 6h188q31 0 51.5 -14.5t20.5 -52.5v-227h-327z" />
    

    
    <glyph glyph-name="weixin" unicode="&#58883;" d="M1005.1347 201.224c0 137.7986-137.9102 250.0984-292.7135 250.0984-163.9915 0-293.1143-112.2999-293.1143-250.0984 0-138.0144 129.1227-250.0914 293.1143-250.0914 34.3002 0 68.9381 8.6451 103.4141 17.2983l94.5198-51.7929-25.9525 86.1616C953.6106 54.6593 1005.1347 123.5157 1005.1347 201.224zM617.3677 244.3357c-17.1711 0-34.4411 17.0754-34.4411 34.5136 0 17.1594 17.27 34.4396 34.4411 34.4396 26.0854 0 43.1245-17.2803 43.1245-34.4396C660.4933 261.4112 643.4531 244.3357 617.3677 244.3357zM806.933 244.3357c-17.0381 0-34.2202 17.0754-34.2202 34.5136 0 17.1594 17.1821 34.4396 34.2202 34.4396 25.8315 0 43.1285-17.2803 43.1285-34.4396C850.0615 261.4112 832.7635 244.3357 806.933 244.3357zM369.8294 716.0069c-189.4793 0-344.6505-129.1175-344.6505-293.0573 0-94.6328 51.6721-172.3771 137.8732-232.6543l-34.4201-103.7087 120.4743 60.429c43.1345-8.5082 77.7105-17.2813 120.7231-17.2813 10.8131 0 21.5413 0.5266 32.1795 1.3561-6.7537 23.0504-10.6312 47.209-10.6312 72.217 0 150.5909 129.2737 272.7611 292.9724 272.7611 11.1939 0 22.2458-0.7875 33.2248-2.0166C687.6879 612.8739 539.2535 716.0069 369.8294 716.0069zM257.8468 483.3777c-25.7806 0-51.8889 17.2833-51.8889 43.1118 0 25.9604 26.1084 42.9869 51.8889 42.9869 25.8535 0 42.9956-17.0265 42.9956-42.9869C300.8434 500.661 283.7003 483.3777 257.8468 483.3777zM499.0731 483.3777c-25.8285 0-51.785 17.2833-51.785 43.1118 0 25.9604 25.9575 42.9869 51.785 42.9869 25.9245 0 43.1205-17.0265 43.1205-42.9869C542.1936 500.661 524.9976 483.3777 499.0731 483.3777z"  horiz-adv-x="1000" />

    
    <glyph glyph-name="mima01" unicode="&#58911;" d="M374.359539 475.730327c0 50.870598 13.406897 169.175027 137.631251 169.175027 119.755388 0 137.631251-105.990986 137.631251-169.175027l0-37.262672 103.223182 0 0 37.262672c0 165.479869-94.554391 272.393877-240.854433 272.393877s-240.854433-106.915032-240.854433-272.393877l0-37.262672 103.223182 0L374.359539 475.730327zM752.854433 404.054891 271.145567 404.054891c-56.987244 0-103.223182-46.235021-103.223182-103.21885l0-344.063173c0-56.986899 46.235938-103.21885 103.223182-103.21885l481.708865 0c56.988267 0 103.223182 46.231951 103.223182 103.21885L856.077615 300.836041C856.077615 357.81987 809.8427 404.054891 752.854433 404.054891zM546.407045 103.939649l0-78.353532c0-18.950607-15.456666-34.406624-34.408068-34.406624-18.952426 0-34.408068 15.454994-34.408068 34.406624l0 78.353532c-20.497683 11.92868-34.408068 33.869389-34.408068 59.271942 0 38.001499 30.810996 68.812225 68.815114 68.812225 38.002071 0 68.815114-30.810726 68.815114-68.812225C580.815114 137.809037 566.903705 115.868329 546.407045 103.939649z"  horiz-adv-x="1024" />

    
    <glyph glyph-name="shoushi" unicode="&#58907;" d="M763.553735 683.881041 256.723477 683.881041l253.414617-253.379824L763.553735 683.881041zM256.723477 683.881041 88.532871 430.500193l358.252337 0L256.723477 683.881041zM931.744341 430.500193 763.553735 683.881041 573.493028 430.500193 931.744341 430.500193zM95.151615 367.112514l414.987502-443.441555L320.077388 367.112514 95.151615 367.112514zM510.139118-76.329041l414.987502 443.441555L700.198801 367.112514 510.139118-76.329041zM383.431298 367.112514l126.70782-443.441555 126.706797 443.441555L383.431298 367.112514z"  horiz-adv-x="1024" />

    
    <glyph glyph-name="xiezi" unicode="&#58910;" d="M148.945287-12.188208c-1.013073 13.537318-1.719154 27.107381-3.101641 40.606837-3.015683 29.439496-5.474688 58.978253-9.824763 88.22946-5.322216 35.791158-11.803837 71.437006-18.780739 106.949824-7.834432 39.877219-20.218484 78.470189-34.872229 116.39187-11.44261 29.611411-13.502525 60.335157-8.642844 91.662653 7.134491 45.99352 25.970488 87.204108 51.824319 125.314077 11.965519 17.638729 25.679869 34.091446 38.625716 51.064003 1.068332 1.400906 2.319835 2.661619 3.634784 4.15667 16.756639-15.873526 33.374108-31.500435 49.865711-47.258327C326.066287 461.357991 430.27672 353.619198 534.906709 246.297914c29.484521-30.242791 58.340733-61.132312 88.649016-90.52576 28.579919-27.716248 61.566194-49.26503 99.475596-62.552661 15.500019-5.432733 31.42471-8.80555 47.864124-9.469676 10.816347-0.436952 21.63781-0.788969 32.461319-1.017166 6.547113-0.138146 11.045567 2.676969 15.130605 8.269337 14.063297 19.253506 32.577976 32.628118 56.573483 35.979446 30.42801 4.249791 61.558008-7.617491 73.891917-43.47721 0.294712-0.857531 0.810459-1.639337 1.221828-2.456958 0-31.052227 0-62.104453 0-93.234451-163.483398 0-326.966797 0-490.450195 0-0.732687 1.778506-1.311879 3.6399-2.221598 5.322216-21.508873 39.791262-42.683125 79.769788-64.708767 119.273501-16.999163 30.488385-34.927487 60.465117-56.378032 88.156806-8.119935 10.483772-14.199397 12.626575-26.944676 9.238408-8.574283-2.279926-17.232476-6.000668-25.833365-5.944386-9.052167 0.058328-12.561084-3.747347-14.736633-11.118222-0.408299-1.38351-1.119497-2.676969-1.693572-4.01136-12.192693-28.374234-16.930601-58.557674-21.162995-88.801489-3.313465-23.682375-5.561669-47.514153-8.882298-71.195505-1.924839-13.725606-5.034666-27.284413-7.610328-40.917922C202.684212-12.188208 175.814238-12.188208 148.945287-12.188208z"  horiz-adv-x="1024" />

    
    <glyph glyph-name="jia" unicode="&#58921;" d="M913.63438 384 562.199309 384l0-401.63438-50.199309 0L512 384 110.36562 384l0 50.204425 401.63438 0L512 785.63438l50.199309 0 0-351.429954 351.435071 0L913.63438 384z"  horiz-adv-x="1024" />

    
    <glyph glyph-name="yaoqingma" unicode="&#58956;" d="M113.412514 858.432383l0-395.337977c0.826831-0.548492 1.627057-1.157359 2.37407-1.859347l362.250394-340.968695L855.214341 462.200036c1.464351 1.327228 3.092431 2.349511 4.807493 3.099594L860.021833 858.432383 113.412514 858.432383zM348.828198 326.201619l-44.691875 0L304.136324 504.29783l-0.002047 0-41.188074 0 0 39.853683 17.844413 0c3.668553-0.11154 6.974855 0.083911 9.920954 0.583285 2.945075 0.500397 6.083555 1.777483 9.419534 3.835352 3.335978 2.055822 5.555529 4.361331 6.662747 6.92062l3.322675 6.671956 38.711673-0.166799L348.828198 326.201619zM375.819946 724.02009c0.543376 80.136132 82.966597 96.247064 111.950721 27.226085 27.696806 66.275449 111.530143 53.588499 112.073518-26.731828 0.295735-44.018539-39.74112-59.375296-65.608254-78.057797-23.590278-17.076934-43.869137-41.101093-46.292326-50.819432-2.818185 9.940396-21.020756 33.272801-46.540989 50.335409C415.065785 663.580556 375.523187 680.039413 375.819946 724.02009zM556.603359 364.553089l-20.844747 0 0-38.183647-42.355667 0 0 38.184671-90.214674 0-0.166799 44.358277 94.382601 153.249313 38.353516 0 0-156.083871 20.844747 0L556.602336 364.553089zM725.694475 519.639237c-5.446036-6.671956-10.310833-12.95301-14.5903-18.844184-4.282536-5.894244-8.950859-14.09195-14.007015-24.596188-5.059226-10.507308-9.397021-21.344121-13.006222-32.517601-3.614317-11.172457-6.561439-22.290679-8.839319-33.350572-2.28095-11.06501-4.310166-23.26282-6.086625-36.604686-1.778506-13.338796-2.666736-22.569018-2.666736-27.681456l-0.500397-19.843954L617.637434 326.200596c1.556449 13.228279 3.169179 25.901926 4.837168 38.018895 1.667989 12.116969 3.835352 24.179702 6.502088 36.18513 2.667759 12.007475 7.003508 27.182083 13.007245 45.524846s10.673084 30.959106 14.007015 37.85312l16.510022 35.852556-97.219205 0 0 42.189891 150.411685 0L725.693452 519.639237zM490.006592 403.74981 490.006592 474.620927 446.317557 403.74981ZM860.021833 484.911294l0-19.611663c6.789637 2.970658 14.994506 1.468444 20.24816-4.327562 6.579859-7.258311 6.02932-18.475793-1.227967-25.054629L477.585701 71.972451 91.471806 435.40067c-7.134491 6.714935-7.474228 17.940604-0.759293 25.074072 6.010901 6.385431 15.629979 7.308453 22.700001 2.619664l0 18.739806-48.343031-0.199545 0-450.740798c0-37.799908 30.641881-68.443835 68.442812-68.443835l706.410781 0c37.798884 0 68.442812 30.643927 68.442812 68.443835L908.365888 485.110839 860.021833 484.911294z"  horiz-adv-x="1024" />

    
    <glyph glyph-name="iconfontqq1" unicode="&#58964;" d="M910.858 223.278c-18.835 109.494-97.937 181.226-97.937 181.226 11.302 99.415-30.13 117.046-30.13 117.046-8.718 307.585-273.041 302.201-278.595 302.054-5.551 0.148-269.911 5.531-278.593-302.053 0 0-41.435-17.63-30.135-117.046 0 0-79.096-71.733-97.93-181.226 0 0-10.059-185.007 90.396-22.655 0 0 22.605-61.656 64.032-117.046 0 0-74.084-25.183-67.797-90.61 0 0-2.522-72.982 158.198-67.962 0 0 112.995 8.798 146.896 56.63l29.87 0c33.901-47.832 146.893-56.63 146.893-56.63 160.687-5.02 158.199 67.962 158.199 67.962 6.254 65.427-67.798 90.61-67.798 90.61 41.432 55.39 64.032 117.046 64.032 117.046 100.42-162.352 90.401 22.654 90.401 22.654z"  horiz-adv-x="1024" />

    
    <glyph glyph-name="meizhuang" unicode="&#58934;" d="M638.848 652.8c7.744 9.664 8.256 23.296 1.28 33.472C635.968 692.16 537.408 832 352.512 832 167.104 832 72.512 690.112 68.544 684.096 61.76 673.728 62.656 660.096 70.656 650.624l196.352-231.104c1.088-1.28 2.624-1.92 3.904-2.944l-46.4-417.344c-2.368-10.048-1.024-25.536 9.536-38.784C246.976-55.808 269.568-64 301.312-64L426.88-64c33.408 0 69.376 17.408 69.376 55.616 0 25.408-35.264 331.84-46.336 427.008C450.496 419.2 451.328 419.456 451.776 420.096L638.848 652.8zM298.688 468.544l-24.832 102.4C270.272 586.048 279.488 601.152 294.528 604.8 309.504 608.384 324.672 599.232 328.32 584.192l28.032-116.16L298.688 468.544zM315.84 315.456l6.208 56 76.864 0 6.464-56L315.84 315.456zM435.52 572.544 416.384 468.032l-56.96 0 20.928 114.624C383.232 597.824 397.76 608 412.992 605.12 428.224 602.368 438.272 587.776 435.52 572.544zM921.344 471.04l-11.648 0L909.696 771.008C909.696 824.064 883.392 832 867.648 832c-20.608 0-39.168-14.848-64.768-35.328-12.672-10.176-26.88-21.568-41.92-31.168-44.864-28.416-59.136-70.464-60.48-92.608L700.48 471.04l-18.752 0c-21.312 0-38.656-17.408-38.656-38.784l0-457.408c0-21.376 17.344-38.848 38.656-38.848l239.616 0C942.656-64 960-46.592 960-25.152L960 432.256C960 453.632 942.656 471.04 921.344 471.04zM870.4 81.984c0-15.488-12.544-27.968-27.968-27.968-15.488 0-28.032 12.544-28.032 27.968L814.4 335.296c0 15.488 12.544 27.968 28.032 27.968 15.488 0 27.968-12.544 27.968-27.968L870.4 81.984z"  horiz-adv-x="1024" />

    
    <glyph glyph-name="tuihuanhuo" unicode="&#59026;" d="M1109.183045 481.516896c-10.816955 8.684896-26.532299 6.950209-35.221015-3.931701l-42.893373-53.702687c-1.352597 20.728358-4.057791 41.663045-8.440358 62.655045C969.059343 745.143403 717.537433 911.084896 460.601313 857.256119 203.672836 803.350925 38.824119 550.10197 92.328119 291.561075c53.515463-258.613493 305.106149-424.61994 562.034627-370.657433 93.504955 19.578269 173.736119 66.197015 236.45994 129.302925 0.248358 0.259821 0.515821 0.450866 0.764179 0.710687 1.035463 1.222687 1.360239 2.449194 2.510328 3.66806 1.868418 3.15606 3.163701 6.762985 3.163701 10.694687 0 11.455045-9.208358 20.736-20.48 20.736-6.182209 0-11.592597-2.777791-15.329433-7.08394l-0.12991 0.072597c-56.988657-57.126209-130.139701-99.240119-214.940657-117.007284-232.597015-48.81194-460.475224 101.555582-508.901254 335.680955C88.988657 531.750209 238.324537 761.053612 470.91009 809.865552c232.654328 48.750806 460.41791-101.54794 508.97003-335.680955 3.66806-18.034627 6.312119-35.931701 7.790806-53.771463l-52.09409 41.980179c-10.816955 8.684896-26.532299 6.950209-35.228657-3.931701-8.684896-10.816955-6.892896-26.662209 3.931701-35.415881 0-0.061134 0-0.061134 0.12991-0.061134l95.816597-77.403701 0-0.072597c5.540299-4.443701 12.177194-6.117254 18.607761-5.345433 6.57194 0.718328 12.689194 3.736836 17.121433 9.280955 0 0.064955 0.12991 0.122269 0.12991 0.122269l76.819104 96.466149 0 0C1121.677373 456.91797 1119.87391 472.755582 1109.183045 481.516896L1109.183045 481.516896zM717.537433 363.539104l0 0.259821c11.978507 0 21.637731 9.720358 21.637731 21.702687 0 11.970866-9.651582 21.695045-21.637731 21.695045l-130.391881 0 0 39.936 129.291463 126.84991-0.114627 0.12991c8.948537 7.916896 9.785313 21.63391 1.734687 30.655045-7.920716 9.005851-21.645373 9.781493-30.586269 1.803463l-121.577075-119.903522-127.954149 125.692179c-9.009672 7.924537-22.661731 7.08394-30.651224-1.933373-7.913075-8.883582-7.076299-22.600597 1.868418-30.525134l-0.12991-0.191045 134.522269-131.557254 0-40.96-130.460657 0 0-0.12991c-11.921194 0-21.641552-9.651582-21.641552-21.63391 0-12.043463 9.720358-21.702687 21.641552-21.702687l0-0.12991 130.460657 0 0-67.02997-130.460657 0 0-0.12991c-11.921194 0-21.702687-9.792955-21.702687-21.695045 0-11.917373 9.789134-21.710328 21.702687-21.710328l0-0.118448 130.460657 0 0-128.790925 0.068776 0c0-11.909731 9.724179-21.63391 21.702687-21.63391s21.637731 9.724179 21.637731 21.63391l0.198687 0 0 128.790925 130.391881 0 0 0.244537c11.978507 0 21.641552 9.731821 21.641552 21.698866 0 12.047284-9.655403 21.710328-21.641552 21.710328l-130.391881 0 0 66.972657L717.537433 363.539104 717.537433 363.539104z"  horiz-adv-x="1166" />

    
    <glyph glyph-name="xinxi1" unicode="&#58999;" d="M516.29 785.754c-245.499 0-445.255-159.808-445.255-356.204 0-91.281 43.612-178.311 122.792-244.987 12.827-10.795 18.523-27.896 14.654-44.233l-29.958-127.435 183.841 73.54c5.262 2.129 10.893 3.194 16.523 3.194 3.457 0 6.937-0.413 10.349-1.217 41.874-10.002 84.616-15.067 127.055-15.067 245.521 0 445.255 159.795 445.255 356.205C961.545 625.947 761.811 785.754 516.29 785.754zM293.663 362.761c-36.872 0-66.788 29.895-66.788 66.789 0 36.861 29.917 66.788 66.788 66.788 36.873 0 66.789-29.926 66.79-66.788C360.452 392.654 330.536 362.761 293.663 362.761zM516.29 362.761c-36.873 0-66.789 29.895-66.789 66.789 0 36.861 29.916 66.788 66.789 66.788s66.789-29.926 66.789-66.788C583.079 392.654 553.163 362.761 516.29 362.761zM738.918 362.761c-36.874 0-66.788 29.895-66.788 66.789 0 36.861 29.915 66.788 66.788 66.788 36.871 0 66.788-29.926 66.789-66.788C805.707 392.654 775.789 362.761 738.918 362.761z"  horiz-adv-x="1024" />

    
    <glyph glyph-name="xiangyou" unicode="&#58983;" d="M320 665.2 361.4 704 704 384 361.4 64 320 102.6 621 384Z"  horiz-adv-x="1024" />

    
    <glyph glyph-name="iconxiangzuo" unicode="&#58925;" d="M669.120992 33.321152c-11.112082 0-22.226211 4.297886-30.714536 12.930497L320.101947 370.355235c-16.940834 17.244756-16.940834 45.235251 0 62.500473l318.30451 324.139401c16.975627 17.265222 44.419675 17.265222 61.395302 0 16.939811-17.245779 16.939811-45.237297 0-62.500473L412.194388 401.618263 699.801758 108.787938c16.939811-17.273409 16.939811-45.237297 0-62.509682C691.350273 37.619038 680.235121 33.321152 669.120992 33.321152L669.120992 33.321152zM669.120992 33.321152"  horiz-adv-x="1024" />

    
    <glyph glyph-name="wodepingjia" unicode="&#59401;" d="M867.396289 758.692774 156.604734 758.692774c-50.167586 0-90.982154-40.814568-90.982154-90.983177l0-475.379964c0-50.166563 40.814568-90.981131 90.982154-90.981131l265.548982 0 88.675622-91.825358 88.948845 91.825358 267.617084 0c50.166563 0 90.981131 40.814568 90.981131 90.981131L958.376397 667.709597C958.37742 717.877183 917.562852 758.692774 867.396289 758.692774zM329.189418 384.732687c-27.269064 0-49.454342 22.185278-49.454342 49.454342s22.185278 49.454342 49.454342 49.454342 49.454342-22.185278 49.454342-49.454342S356.458481 384.732687 329.189418 384.732687zM505.07631 384.732687c-27.269064 0-49.454342 22.185278-49.454342 49.454342s22.185278 49.454342 49.454342 49.454342 49.454342-22.185278 49.454342-49.454342S532.345374 384.732687 505.07631 384.732687zM683.914418 384.732687c-27.269064 0-49.454342 22.185278-49.454342 49.454342s22.185278 49.454342 49.454342 49.454342 49.454342-22.185278 49.454342-49.454342S711.183482 384.732687 683.914418 384.732687z"  horiz-adv-x="1024" />

    
    <glyph glyph-name="daizhifu" unicode="&#58927;" d="M913.807 278.262l-296.069 0c-46.72 0-84.593 37.873-84.593 84.593l0 42.296c0 46.72 37.873 84.588 84.593 84.588l296.069 0c46.72 0 84.593-37.873 84.593-84.588l0-42.296c0-46.72-37.873-84.593-84.593-84.593zM956.104 405.151c0 23.357-18.934 42.291-42.296 42.291l-296.069 0c-23.357 0-42.296-18.934-42.296-42.291l0-42.296c0-23.357 18.934-42.296 42.296-42.296l296.069 0c23.357 0 42.296 18.934 42.296 42.296l0 42.296zM892.662 362.849c-11.679 0-21.146 9.472-21.146 21.146 0 11.679 9.467 21.151 21.146 21.151s21.146-9.472 21.146-21.151c0-11.674-9.467-21.146-21.146-21.146zM416.835 320.558c5.837 0 10.573-4.731 10.573-10.573l0-21.146c0-5.837-4.736-10.573-10.573-10.573l-95.165 0 0-52.869c0-5.837-4.736-10.573-10.573-10.573l-21.146 0c-5.842 0-10.573 4.736-10.573 10.573l0 52.869-95.171 0c-5.837 0-10.573 4.736-10.573 10.573l0 21.146c0 5.842 4.736 10.573 10.573 10.573l95.165 0 0 42.296-95.165 0c-5.837 0-10.573 4.736-10.573 10.573l0 21.146c0 5.842 4.736 10.578 10.573 10.578l95.165 0-105.738 169.18 42.296 0 84.593-135.347 84.593 135.347 42.296 0-105.743-169.18 95.165 0c5.837 0 10.573-4.736 10.573-10.578l0-21.146c0-5.837-4.736-10.573-10.573-10.573l-95.165 0 0-42.296 95.165 0zM871.511 701.215c0 23.357-18.939 42.296-42.296 42.296l-719.022 0c-23.357 0-42.296-18.934-42.296-42.296l0-634.435c0-23.357 18.934-42.296 42.296-42.296l719.027 0c23.357 0 42.296 18.939 42.296 42.296l0 126.889 42.296 0 0-126.889c0-46.72-37.873-84.588-84.593-84.588l-719.027 0c-46.72 0-84.593 37.873-84.593 84.588l0 634.435c0 46.72 37.873 84.593 84.593 84.593l719.027 0c46.72 0 84.593-37.873 84.593-84.593l0-126.889-42.296 0 0 126.889z"  horiz-adv-x="1024" />

    
    <glyph glyph-name="dakai" unicode="&#58908;" d="M876.636744 450.360384 566.954613 450.360384l0 309.683155c0 36.650735-29.709649 66.360384-66.360384 66.360384-36.650735 0-66.360384-29.709649-66.360384-66.360384l0-309.683155L124.550691 450.360384c-36.650735 0-66.360384-29.709649-66.360384-66.360384s29.709649-66.360384 66.360384-66.360384l309.683155 0 0-309.682132c0-36.650735 29.709649-66.360384 66.360384-66.360384 36.650735 0 66.360384 29.709649 66.360384 66.360384L566.954613 317.639616l309.682132 0c36.650735 0 66.360384 29.709649 66.360384 66.360384S913.287479 450.360384 876.636744 450.360384z"  horiz-adv-x="1024" />

    
    <glyph glyph-name="daishouhuo-copy" unicode="&#58882;" d="M649.109 246.891l-131.836 116.016-131.836-116.016v500.977h268.945l-5.273-500.977zM417.078 716.227v-390.234l100.195 89.648 100.195-94.922v395.508h-200.391zM227.234 457.828h116.016v-36.914h-116.016v36.914zM638.563 526.383h258.398v-36.914h-258.398v36.914zM121.766 526.383h279.492v-36.914h-279.492l-5.273 31.641 5.273 5.273zM849.5 20.133h-669.727c-42.188 0-73.828 31.641-73.828 73.828v522.070c0 42.188 31.641 73.828 73.828 73.828h669.727c42.188 0 73.828-31.641 73.828-73.828v-522.070c5.273-42.188-31.641-73.828-73.828-73.828v0zM179.773 658.219c-21.094 0-42.188-21.094-42.188-42.188v-522.070c0-21.094 21.094-42.188 42.188-42.188h669.727c21.094 0 42.188 21.094 42.188 42.188v522.070c0 21.094-21.094 42.188-42.188 42.188h-669.727z"  horiz-adv-x="1024" />

    
    <glyph glyph-name="icons08" unicode="&#58951;" d="M541.44 15.36c-19.2 0-38.4 0-58.88 0-1.28 11.52-1.28 21.76-2.56 33.28-6.4 48.64-24.32 94.72-44.8 139.52-26.88 60.16-60.16 116.48-90.88 175.36-24.32 47.36-48.64 96-57.6 149.76 0 11.52 0 24.32 0 35.84 1.28 10.24 2.56 20.48 5.12 30.72 21.76 84.48 75.52 139.52 157.44 165.12 17.92 5.12 37.12 7.68 55.04 8.96 3.84 0 7.68 0 11.52 0 7.68-1.28 16.64-1.28 24.32-2.56 87.04-14.08 145.92-61.44 180.48-142.08 7.68-19.2 11.52-39.68 14.08-58.88 0-11.52 0-24.32 0-35.84-1.28-7.68-2.56-15.36-5.12-21.76-10.24-35.84-25.6-69.12-42.24-102.4-28.16-55.04-57.6-108.8-84.48-163.84C573.44 157.44 544 89.6 541.44 15.36zM512 436.48c49.92 0 90.88 40.96 90.88 90.88 0 49.92-40.96 90.88-90.88 90.88-51.2 0-92.16-40.96-92.16-90.88C419.84 477.44 462.08 436.48 512 436.48z"  horiz-adv-x="1024" />

    
    <glyph glyph-name="dizhi" unicode="&#58906;" d="M501.76 865.28C337.92 865.28 204.8 732.16 204.8 565.76c0-163.84 161.28-371.2 299.52-540.16 135.68 171.52 299.52 373.76 299.52 540.16-2.56 166.4-135.68 299.52-302.08 299.52z m0-496.64c-110.08 0-197.12 89.6-197.12 197.12 0 110.08 89.6 197.12 197.12 197.12 110.08 0 197.12-89.6 197.12-197.12 2.56-110.08-87.04-197.12-197.12-197.12z m0 0M389.12 565.76c0-30.72 12.8-58.88 33.28-79.36 20.48-20.48 51.2-33.28 79.36-33.28 30.72 0 58.88 12.8 79.36 33.28 20.48 20.48 33.28 51.2 33.28 79.36 0 30.72-12.8 58.88-33.28 79.36-20.48 20.48-51.2 33.28-79.36 33.28-30.72 0-58.88-12.8-79.36-33.28-20.48-20.48-33.28-48.64-33.28-79.36z m0 0M504.32-104.96c-192 0-386.56 61.44-386.56 176.64 0 64 64 117.76 176.64 151.04 20.48 5.12 40.96-5.12 46.08-25.6 5.12-20.48-5.12-40.96-25.6-46.08-84.48-23.04-122.88-56.32-122.88-79.36 0-40.96 122.88-102.4 314.88-102.4 192 0 314.88 61.44 314.88 102.4 0 23.04-46.08 58.88-130.56 81.92-20.48 5.12-30.72 25.6-25.6 46.08 5.12 20.48 25.6 30.72 46.08 25.6 117.76-30.72 186.88-87.04 186.88-153.6-7.68-115.2-202.24-176.64-394.24-176.64z m0 0"  horiz-adv-x="1024" />

    
    <glyph glyph-name="huiyuan" unicode="&#59141;" d="M512-128C229.2224-128 0 101.2224 0 384 0 666.7776 229.2224 896 512 896 794.7776 896 1024 666.7776 1024 384 1024 101.2224 794.7776-128 512-128ZM512 793.6C286.1568 793.6 102.4 609.8432 102.4 384 102.4 158.1568 286.1568-25.6 512-25.6 737.8432-25.6 921.6 158.1568 921.6 384 921.6 609.8432 737.8432 793.6 512 793.6ZM707.584 486.4C602.624 229.4272 512 25.6 512 25.6 512 25.6 421.3248 229.4272 316.416 486.4L204.8 486.4 204.8 588.8 460.8 588.8 460.8 486.4 426.8544 486.4C455.4752 416.6144 484.1472 347.904 512 282.4704 539.8528 347.904 568.5248 416.6144 597.1456 486.4L563.2 486.4 563.2 588.8 819.2 588.8 819.2 486.4 707.584 486.4Z"  horiz-adv-x="1024" />

    
    <glyph glyph-name="account" unicode="&#59011;" d="M513.51 800.816c-230.418 0-417.219-186.8-417.219-417.231 0-230.416 186.801-417.219 417.219-417.219 230.428 0 417.229 186.803 417.229 417.219 0 230.432-186.802 417.231-417.229 417.231zM667.423 333.455c16.271 0 29.504-13.174 29.504-29.367 0-16.204-13.235-29.371-29.504-29.371h-125.082v-124.258c0-16.122-13.109-29.237-29.237-29.237-16.2 0-29.403 13.138-29.443 29.287v124.209h-124.192c-16.198 0-29.374 13.166-29.374 29.371 0 16.192 13.176 29.367 29.374 29.367h124.192v95.305h-124.192c-16.198 0-29.374 13.142-29.374 29.305 0 16.153 13.176 29.3 29.374 29.3h123.804l-94.854 108.454c-5.569 5.544-8.633 12.908-8.633 20.743 0 7.86 3.074 15.272 8.649 20.867 5.516 5.497 12.88 8.531 20.723 8.531 7.837 0 15.201-3.055 20.73-8.603l83.585-93.688 83.472 93.67c5.537 5.561 12.918 8.62 20.78 8.62 7.835 0 15.199-3.038 20.719-8.556 11.414-11.496 11.429-30.153 0-41.573l-98.131-108.467h127.11c16.271 0 29.504-13.147 29.504-29.3 0-16.163-13.235-29.305-29.504-29.305h-125.082v-95.305h125.082z"  horiz-adv-x="1024" />

    
    <glyph glyph-name="weibo" unicode="&#58984;" d="M2.778359 896v0 0zM763.377135 393.466074q-15.744776 3.155041-20.445007 9.433743t-1.57752 11.548515l3.15504 5.237482q1.04027 1.04027 2.114772 3.155041t4.197212 8.929773 4.733512 13.630005 2.61779 16.785046-0.5363 18.900768-6.311983 19.404738-13.126986 18.900768q-14.703556 14.703556-38.305506 18.900768t-47.202949 0.5363-44.582307-9.433744-34.612263-11.012215l-13.630005-6.311983q-10.507294-3.155041-17.323247-4.197213t-10.507294 0.5363-5.774733 3.155041-1.57752 7.352253 1.040269 9.970044 2.61779 13.126986 3.155041 14.167256q0 12.588784-1.57752 23.600048t-6.815003 24.641269-15.208476 22.023478-25.17947 13.630005-39.346727 3.155041-54.554251-12.588784q-36.727034-12.588784-74.494339-37.231004t-65.564564-51.397309-50.89429-51.935511-35.686765-40.924246l-11.548515-16.785046q-34.612263-45.120508-51.397309-90.240066t-15.744776-68.185207v-22.023479q6.311984-50.357039 30.952302-90.240065t58.750513-64.524295 80.269071-41.964516 88.662545-25.179471 89.703765-11.012215q77.651281-6.311984 161.042112 12.052485t155.269281 63.484025 101.25133 108.067283q17.826266 36.727034 18.364468 69.258758t-11.012215 52.97578-29.912032 36.190734-34.612263 23.09703-28.83753 9.433743zM443.405781 67.183686q-113.303814-5.237482-192.500285 44.079288t-79.19457 124.852328q0 74.494338 78.691551 128.51229t193.036585 59.287764 193.036585-37.767304 78.69155-117.500075q0-75.53651-80.269071-135.864543t-191.459064-65.564565zM412.99073 357.813541q-30.415051-3.155041-54.554252-14.167256t-37.767304-25.17947-23.097029-30.415051-13.126986-31.993522-4.733512-28.837531-1.04027-20.445007l1.04027-8.393474v-4.197212q0-3.155041 2.114771-12.588784t5.774733-17.323248 12.052484-17.323247 19.941989-15.744777q69.258758-33.571993 129.04859-20.445007t96.517817 60.327083q14.703556 17.826266 19.404737 44.079287t-2.114771 52.975781-23.600048 48.779518-49.820739 34.109245-76.073761 6.815002zM375.221524 159.505242q-6.311984-1.04027-12.052484-0.5363t-10.507294 2.114771-9.433744 3.65806-7.855272 5.774733-5.774733 7.352253-4.197212 8.393474-1.577521 9.970043q0 11.548515 6.311984 22.559779t17.323248 18.900768 24.641268 8.929774q9.433743 1.04027 18.364468-0.5363t15.208477-5.237482 11.012215-8.393474 6.815002-11.012215 2.114771-13.630005q0-11.548515-6.815002-22.023479t-18.364468-17.826266-25.179471-8.393474zM464.388039 235.041752q-7.352253-5.237482-15.208476-4.733513t-11.012215 6.815003l-2.114771 4.197212q-1.04027 2.114771-1.04027 4.197213v4.197212q0 3.155041 1.04027 5.237482l2.114771 4.197212q1.04027 2.114771 3.155041 3.155041l3.155041 4.197213q8.393474 6.311984 16.248746 5.237482t11.012214-8.393474q3.155041-4.197212 2.617791-9.433744t-3.155041-9.970043-6.815003-8.929774zM836.831204 454.331358q6.311984 0 11.548515 3.155041t8.393474 7.855272 4.197212 9.970043q1.04027 1.04027 1.04027 3.155041 12.588784 119.615797-83.929984 136.400843-28.334511 5.237482-52.471811 1.04027-7.352253 0-12.588784-3.65806t-8.929774-9.433743-3.658059-12.052485q0-10.507294 7.352253-17.826266t17.826266-7.352253q81.847542 18.900768 88.125294-52.471811 2.114771-17.826266-2.114771-33.571993 0-10.507294 7.352253-17.826267t17.826267-7.352253zM819.004938 750.164462q-46.160778 10.507294-123.812059-4.197212-1.04027 0-2.114771-1.04027l-1.04027-2.114771-1.04027-1.040269q-11.548515-3.155041-18.900768-13.126986t-7.352253-21.518559q0-15.744776 10.507294-26.21974t25.179471-10.507294h3.155041q1.04027 0 4.733512 1.04027t7.855272 1.57752 8.929774 2.114771 8.393474 3.155041 14.167255 1.577521 25.715771-1.577521 33.571993-7.855272 36.727034-15.744776 36.727035-26.21974 31.993522-38.808525q27.294242-61.906505 10.507294-119.615797 0-1.04027-0.5363-2.114771t-1.57752-5.237482-2.114772-7.855272-2.114771-9.433744-1.04027-9.970043q0-9.433743 5.237482-15.744776t13.126987-8.929774 18.364468-2.61779q29.375732 0 34.612263 35.686765 12.588784 40.924247 14.167255 78.15525t-5.237482 65.564565-20.445007 52.97578-31.489552 41.964517-39.883026 31.489552-42.501768 22.559778-42.501767 13.630005z"  horiz-adv-x="1049" />

    
    <glyph glyph-name="shouye" unicode="&#58893;" d="M936.77037 385.517037L553.718519 768.568889c-8.343704 8.343704-21.238519 8.343704-29.582223 0L141.084444 385.517037c-6.068148-8.343704-6.068148-21.238519 0-27.306667 8.343704-8.343704 21.238519-8.343704 29.582223-2.275555l48.545185 48.545185V8.533333c0-12.894815 8.343704-21.238519 21.238518-21.238518h212.385186c12.894815 0 21.238519 8.343704 21.238518 21.238518V285.392593h127.431111V8.533333c0-12.894815 8.343704-21.238519 21.238519-21.238518h212.385185c12.894815 0 21.238519 8.343704 21.238518 21.238518V405.238519l48.545186-48.545186c8.343704-8.343704 21.238519-8.343704 29.582222 0 10.619259 7.585185 10.619259 20.48 2.275555 28.823704z m-121.362963-354.986667H644.740741V307.38963c0 12.894815-8.343704 21.238519-21.238519 21.238518H453.594074c-12.894815 0-21.238519-8.343704-21.238518-21.238518v-276.85926H262.447407v417.185186L538.548148 723.816296l276.859259-276.859259v-416.426667z"  horiz-adv-x="1024" />

    
    <glyph glyph-name="ershou" unicode="&#59316;" d="M935.529551 622.59919A41196.634442 41196.634442 0 0 0 738.370169 818.989045c-13.254885 13.30912-27.860535 17.445324-39.290865 1.428536-21.920242-30.6603-47.615461-33.103956-82.789564-24.870434-35.133172 8.252964-68.388577-7.367805-95.608522-31.581276-13.46057-11.936867-25.755594-25.227568-38.501896-38.030151-62.61713-62.937424-70.305229-90.797959-149.974733-2.612501-16.035208 17.746176-30.078039 20.302395-48.27447 1.87879-63.35084-64.233953-127.360689-127.754662-191.746092-190.918237-17.820877-17.501606-18.009166-32.277124 0.714268-48.443316 11.69332-10.132778 22.446221-20.3597 19.87056-38.950104-5.226025-38.236859-7.143701-76.962859-13.384845-114.954125-8.140401-49.723471 9.380648-82.82538 58.012251-97.151667 13.008268-3.814886 18.930141-7.519254 21.525246-21.334911 7.049556-38.331004 41.582047-45.682435 68.295456-64.913429 24.194028-17.408485 25.264407-64.103993 64.779375-72.412216 17.520025-3.628644 24.175609-11.016915 29.362749-28.009937 12.44545-40.643676 46.62183-63.841004 85.778642-52.843532 28.593222 8.084119 42.730197-3.308349 58.576093-20.846794 18.479887-20.304442 37.824467-39.515992 66.190515-35.246759 43.725874-2.087545 68.804039 18.948561 79.55694 56.431244 4.324492 15.246239 8.853645 23.122627 25.811876 26.696012 19.455097 4.003174 41.676192 18.140149 48.179302 42.219567 5.978155 22.222117-3.666506 54.892191 11.862166 48.501644 28.668946-11.82635 69.328995 2.160199 78.090542 41.919738 4.436032 20.152992 12.520151 28.161387 33.160238 34.08326 52.898791 14.982226 76.267011 83.672678 36.168757 120.423696-43.179428 39.646975-42.767036 74.030064-24.267706 123.000382 10.939143 29.213345 14.022365 52.843532 24.568558 71.152527 15.528672 27.052123 36.093033 45.36214 61.020772 68.164472 2.820232 2.575662 5.357008 5.583159 8.251941 8.158821 15.357779 13.815657 16.674775 27.425629 1.221828 42.670845zM451.803501 509.751029c2.029216 16.562211 6.823406 33.536814 4.999874 49.761334-8.815783 79.423911 37.389562 128.938628 91.88778 174.375469 33.520441 27.953655 78.466096 31.769564 109.558232 3.665483 40.059368-36.149315 78.353532-74.687026 113.749694-115.366518 29.515221-33.969673 39.83424-77.150124 40.829917-122.059963 0-3.873214 0.432859-7.78122-0.074701-11.598152-3.967358-30.622438-3.741207-71.208808-28.92989-83.748403-17.689894-8.815783-38.988989 29.720905-57.82601 47.672766-40.210817 38.068014-78.502935 78.165244-118.299313 116.570949-15.565511 15.020088-28.386514 29.119201-21.223371 53.237505 4.004197 13.441127 0.508583 26.956955-15.678074 29.833469-19.983123 3.533476-23.592324-12.313443-25.115004-26.600845-4.361331-40.906665-7.574512-81.980129-11.428283-122.943077-2.670829-28.404933-13.027711-52.899814-46.13269-49.740867-32.597419 3.046383-39.947827 27.746948-36.318161 56.94085zM169.484577 273.88509c-19.512403 2.536776-31.91999 15.414061-31.731701 37.898145 0.169869 21.334911 44.402279 63.688531 65.400522 63.407122 23.104207-0.281409 35.754319-13.930267 37.183877-35.867906 1.428535-21.824051-45.831838-66.097394-70.852698-65.437361z m94.237292-79.818907c-22.332634-0.621147-33.686217 4.773723-40.585348 16.954137-7.538697 13.403265-8.196683 28.27395 2.367931 39.7227 20.959358 22.577205 42.428322 45.022403 65.738213 65.135486 15.941064 13.723559 34.30634 9.66308 48.105625-5.733584 12.933567-14.398942 13.57211-31.581276-0.112564-45.230134-25.941835-25.882484-47.710628-57.088206-75.513857-70.848605z m86.473467-75.965136c-3.571339-3.083222-9.605775-3.272533-13.553691-4.511757-14.644535 0.88209-25.867134 5.544273-33.311687 17.690918-8.383948 13.72049-8.328689 28.046776 2.349511 39.250956 29.269627 30.583552 58.934251 60.906162 90.081645 89.555665 13.836123 12.70844 31.263028 10.320043 45.435818-2.463098 13.310144-11.93789 16.337083-29.890774 6.78759-42.071188-28.42233-36.356023-62.46568-67.750033-97.789186-97.451496z m89.086991-74.499761c-15.33936-14.099113-33.178657-15.207353-48.594765-0.582261-16.786315 15.827477-16.503882 34.910091-1.428536 51.507094 19.024286 20.923542 39.365566 40.794102 60.192918 59.988256 11.167341 10.245342 25.00244 12.256138 39.45971 4.773724 12.744255-6.67298 18.009166-17.687848 20.150946-31.018458-1.166569-10.470469-4.342912-20.227694-11.917424-27.804253-19.117406-19.191084-37.954427-38.609343-57.862849-56.864102z m391.820873 193.60851c-16.920368-17.801435-37.052894-16.110933-54.930053 0.11154-11.899004 10.716063-23.836895 23.893176-39.064715 8.553817-16.296151-16.412808 0.733711-27.427676 10.47047-38.59297 14.869662-16.956184 17.520025-34.910091 1.429558-51.736315-17.031908-17.762549-36.094056-17.031908-54.968939-1.277086-11.278881 9.512654-22.576181 26.466792-38.70451 9.943466-15.170514-15.451924-1.110287-27.500331 9.209756-39.250956 14.870686-16.786315 16.881482-35.472909 1.205454-52.03512-17.032932-18.10024-36.676317-15.676028-55.15518-0.845251-11.748578 9.435906-23.067368 25.809829-38.782282 8.928347-15.207353-16.335037 1.202385-27.38879 10.585079-39.136346 15.168468-18.837021 15.902178-38.255279-2.821255-54.591339-17.406438-15.170514-35.715433-11.6749-52.109821 3.083222-8.609075 7.66968-15.924691 16.993023-24.910343 24.155142-14.304797 11.486612-15.394618 20.99722-0.750084 33.593096 12.634762 10.827603 24.721031 23.027459 34.195824 36.561708 25.733081 36.563754 16.749476 83.71054-22.991644 106.944707-17.389042 10.208503-20.735253 18.801205-19.627013 38.068014 2.650363 45.4921-34.531468 81.473593-80.96501 78.013795-18.684548-1.313925-25.960255 2.463098-34.870182 18.536168-16.449647 29.700439-44.627407 42.014906-78.484515 36.732599-10.94119-1.674129-17.23964-2.950192-25.454742 7.989975-39.758516 52.768831-57.410548 56.621579-123.975592 30.05962 2.12336 18.892279 4.530177 36.488029 5.808285 54.15848 0.732687 10.020214 4.473895 22.558785-4.77577 29.30749-30.67872 22.388916-13.026688 37.766139 5.376451 55.550177 44.38386 42.992163 88.918145 85.984327 131.196041 131.100873 17.294898 18.478863 26.581402 15.357779 41.469484-1.372253 20.039405-22.484084 38.800701-48.706305 76.586283-41.036625 18.21485 3.721765 16.034185-11.749602 15.093766-23.122627-2.931772-34.645055-7.387247-69.178569-9.172917-103.899349-2.706645-50.79385 28.368094-87.094614 74.744332-89.818654 47.371914-2.76395 81.85017 27.821649 87.865163 78.106915 1.617847 13.741979 2.781346 27.54024 4.229324 41.338501a2405.373317 2405.373317 0 0 1 10.43363 6.653536c80.043011-81.94329 160.01439-163.830299 239.944838-245.868757 16.84362-17.274432 19.645432-37.105083 2.670829-54.90754z m39.025829 336.025103c-6.203282-4.078899-11.20418-10.057053-22.257934-20.396539-17.59575 83.935668-76.735685 131.401726-128.505769 184.564529-7.858992 8.008394-29.854958 14.32424-13.481036 32.313963 18.837021 20.584827 26.5067-3.533476 35.286668-11.973706 43.611264-41.789779 84.48109-86.49291 129.314181-126.854153 24.945135-22.482037 28.836769-38.309514-0.35611-57.654094z"  horiz-adv-x="1024" />

    
    <glyph glyph-name="ledou" unicode="&#58982;" d="M586.30124 750.287337c-46.701648 0-93.403297-17.810644-129.052215-53.460586a181.904956 181.904956 0 0 1-30.747281-40.900525 476.345965 476.345965 0 0 0-80.08906-106.339934 476.376665 476.376665 0 0 0-106.339933-80.089059 181.988868 181.988868 0 0 1-40.900526-30.747281c-35.649941-35.649941-53.460586-82.35159-53.460585-129.052215 0-161.250544 130.73453-291.985074 291.985074-291.985074 17.113773 0 33.850969 1.537006 50.124607 4.37975 96.970542 16.882506 185.55816 63.699788 254.015298 132.040269C810.206776 222.618473 857.024058 311.20609 873.90554 408.176632c2.842745 16.272615 4.379751 33.009811 4.379751 50.124608 0.002047 161.251567-130.733507 291.986097-291.984051 291.986097zM702.67776 230.248244c-42.292222-42.292222-94.360088-68.862367-148.922774-79.769788a479.507982 479.507982 0 0 1 64.163345 53.778834c100.422154 100.45183 146.369625 234.667647 137.958049 366.069373 56.535621-109.84885 38.841633-248.039189-53.19862-340.078419z"  horiz-adv-x="1024" />

    
    <glyph glyph-name="nvzhuang" unicode="&#59034;" d="M662.528 444.416q10.24-5.12 30.208-16.384t46.08-31.744 57.856-52.736 65.024-80.896 67.072-115.2 64.512-154.624q-15.36-9.216-31.232-21.504t-31.232-22.016-31.744-15.36-32.768-2.56q-44.032 9.216-78.336 8.192t-62.976-7.68-53.248-16.896-47.616-19.968-46.08-16.384-49.664-6.656q-57.344 1.024-110.592 16.896t-101.376 32.256-89.6 25.088-75.264-4.608q-20.48-8.192-41.984-1.024T70.656-40.96q-20.48 13.312-39.936 33.792 37.888 116.736 86.016 199.68t92.672 136.704 78.848 81.408 43.52 33.792q9.216 5.12 10.24 25.088t-1.024 40.448q-3.072 24.576-9.216 54.272L181.248 866.304 361.472 896q27.648-52.224 53.76-79.36t50.176-36.864 45.568-5.12 39.936 17.92Q593.92 823.296 631.808 896l181.248-29.696Q792.576 818.176 768 766.976q-20.48-44.032-47.616-97.28t-57.856-105.472q-12.288-34.816-13.824-57.344t1.536-36.864q4.096-16.384 12.288-25.6z"  horiz-adv-x="1024" />

    
    <glyph glyph-name="daipingjia" unicode="&#58909;" d="M841.4 736.9H182.6c-65.1 0-118-52.9-118-118v-380.1c0-65.1 52.9-118 118-118h194.8c8.5 0 16.7-3 23.1-8.5l83.8-71.3c7.8-6.7 17.6-10 27.3-10 10 0 20.1 3.5 28 10.6l79 70.2c6.5 5.8 14.9 9 23.6 9h199c65.1 0 118 52.9 118 118V619c0.1 65-52.8 117.9-117.8 117.9z m79-498c0-43.6-35.5-79.1-79.1-79.1h-199c-18.3 0-35.9-6.7-49.5-18.8l-79-70.2c-1.2-1.1-3.1-1.1-4.3 0L425.8 142c-13.4 11.5-30.6 17.8-48.3 17.8H182.6c-43.6 0-79.1 35.5-79.1 79.1V619c0 43.6 35.5 79.1 79.1 79.1h658.7c43.6 0 79.1-35.5 79.1-79.1v-380.1zM638.4 393.2H385.6c-10.8 0-19.4-8.7-19.4-19.4s8.7-19.4 19.4-19.4h252.8c10.8 0 19.4 8.7 19.4 19.4 0.1 10.7-8.6 19.4-19.4 19.4zM638.4 529.3H385.6c-10.8 0-19.4-8.7-19.4-19.4s8.7-19.4 19.4-19.4h252.8c10.8 0 19.4 8.7 19.4 19.4 0.1 10.7-8.6 19.4-19.4 19.4z"  horiz-adv-x="1024" />

    
    <glyph glyph-name="dingdan" unicode="&#58916;" d="M862.544795 292.591127c-0.010233-85.354993 0.205685-170.709987-0.085958-256.062933-0.195451-56.914244-29.576619-89.330538-87.702458-97.351212-10.257621-1.415232-20.739347-1.788739-31.118741-1.795902-154.496723-0.109494-308.993446-0.148379-463.489147 0.056281-12.9438 0.017396-26.015513 1.098008-38.803771 3.063779-50.353828 7.740288-79.896678 40.574091-80.122828 90.587158-0.49221 109.014856-0.191358 218.033805-0.199545 327.050708-0.008186 122.538871-0.079818 245.077741 0.034792 367.615588 0.061398 65.60109 31.237445 102.027721 97.506755 103.521749 115.374704 2.601244 230.851739 0.865717 346.286817 0.86981 15.841803 0 27.744901-7.488555 38.281885-18.638499 65.214281-69.007677 130.370233-138.074705 196.312085-206.420303 17.217127-17.844413 23.984251-36.931121 23.605627-61.510936-1.291412-83.645049-0.49528-167.320796-0.505513-250.985288z m-646.437875 91.679026c0-116.658953-0.154519-233.317906 0.101307-349.975837 0.069585-31.824823 11.81407-44.311205 43.038212-44.372603 168.434154-0.332575 336.870354-0.327458 505.304507 0.00307 30.256094 0.059352 42.697451 12.440333 42.748617 42.051745 0.295735 168.224376-0.016373 336.449775 0.433882 504.674151 0.047072 17.698081-6.601348 23.716144-24.478508 23.445991-50.344618-0.76134-100.728122 0.544399-151.058414-0.566911-24.509207-0.541329-34.373879 7.922437-33.810037 32.385594 1.207501 52.385091-0.556679 104.83772 0.784876 157.216671 0.555655 21.707394-5.608741 29.616528-29.133528 29.357632-101.56928-1.119497-203.159026-0.358157-304.740586-0.549515-38.202067-0.071631-49.109488-10.934027-49.159629-48.765657-0.151449-114.968451-0.055259-229.935879-0.030699-344.904331z m418.051281 344.256578c-3.539616 3.282766-4.440126 6.656607-6.440689 5.614881 0-39.656185 0.435928-88.053452 0.444114-127.709637 0.002047-9.097192 1.635243-17.990746 13.220093-18.11559 39.419801-0.424672 78.846766-0.162706 125.474736-0.162705-47.665603 50.424436-90.181929 95.398744-132.698254 140.373051zM510.177492 448.265676c-52.026934 0.004093-104.054891-0.146333-156.079778 0.148379-8.924253 0.050142-22.043039-2.428306-22.361287 10.731412-0.310062 12.833283 12.461823 11.990079 21.688975 12.006452 105.787348 0.179079 211.574696 0.173962 317.361021-0.020466 9.282411-0.017396 22.052249 0.408299 21.065781-12.565177-0.968048-12.720719-14.024411-10.119475-22.994713-10.166547-52.891627-0.278339-105.786325-0.138146-158.679999-0.134053zM511.727801 324.559213c51.135634-0.008186 102.272291 0.233314 153.403832-0.212848 10.226922-0.089028 26.399253 4.198625 26.39516-11.706623-0.004093-13.685697-15.155165-11.009751-24.914436-11.033287-103.135962-0.246617-206.27397-0.162706-309.410956-0.125867-4.322445 0.001023-8.673543 0.201591-12.962219 0.704035-6.421246 0.753153-12.351306 3.216251-12.758582 10.262738-0.514723 8.893554 6.646374 11.44261 13.852496 11.592012 24.25645 0.503467 48.526203 0.461511 72.79084 0.511653 31.201629 0.065492 62.403259 0.017396 93.603865 0.008187zM509.184885 154.275945c-48.568159 0.004093-97.137341-0.066515-145.7055 0.076748-7.758708 0.022513-15.628956 0.403183-23.233144 1.755993-5.304819 0.943488-9.375531 4.816702-9.011234 10.737552 0.361227 5.870708 4.627391 8.947789 10.187013 9.631358 5.997598 0.73678 12.099572 0.904603 18.156522 0.906649 101.473089 0.050142 202.947202 0.035816 304.420291 0.034793 1.734504 0 3.488451 0.14224 5.200442-0.051165 8.925277-1.00898 22.423709 2.417049 22.593577-10.525728 0.190335-14.432711-14.051017-11.961426-23.899316-12.369725-13.852496-0.575098-27.746948-0.196475-41.624003-0.199545-39.028898-0.00614-78.056774-0.001023-117.084648 0.00307z"  horiz-adv-x="1024" />

    
    <glyph glyph-name="wode" unicode="&#58948;" d="M927.744-70.656H135.168c-16.384 0-32.768 8.192-43.008 20.48-10.24 14.336-14.336 30.72-10.24 47.104 40.96 208.896 210.944 364.544 415.744 380.928 8.192 2.048 14.336 2.048 24.576 2.048v-20.48c-8.192 0-14.336 0-22.528-2.048-196.608-14.336-360.448-163.84-399.36-364.544-2.048-10.24 0-22.528 8.192-30.72 6.144-8.192 16.384-12.288 26.624-12.288h792.576c10.24 0 20.48 4.096 26.624 12.288 6.144 8.192 10.24 18.432 8.192 30.72-24.576 131.072-104.448 243.712-217.088 307.2-12.288 8.192-26.624 14.336-38.912 20.48l8.192 18.432c14.336-6.144 28.672-14.336 40.96-20.48 118.784-67.584 200.704-184.32 227.328-321.536 4.096-16.384 0-32.768-12.288-47.104-10.24-12.288-26.624-20.48-43.008-20.48z m-399.36 430.08h-4.096v20.48h6.144l-2.048-20.48zM536.576 359.424c-129.024 0-235.52 106.496-235.52 235.52S407.552 830.464 536.576 830.464s235.52-106.496 235.52-235.52-106.496-235.52-235.52-235.52z m0 450.56c-118.784 0-215.04-96.256-215.04-215.04s96.256-215.04 215.04-215.04 215.04 96.256 215.04 215.04S655.36 809.984 536.576 809.984z"  horiz-adv-x="1024" />

    
    <glyph glyph-name="jian" unicode="&#58977;" d="M160.256 351.232h703.488V416.768H160.256"  horiz-adv-x="1024" />

    
    <glyph glyph-name="xiangbao" unicode="&#58905;" d="M788.478418 779.050986H654.358318V852.840245a46.408339 46.408339 0 0 1-46.408339 43.159755H411.642705a46.408339 46.408339 0 0 1-46.408339-43.159755v-73.789259H232.9706A74.717426 74.717426 0 0 1 157.789091 705.72581v-663.639248A74.717426 74.717426 0 0 1 232.9706-32.16678h64.971675a64.507591 64.507591 0 0 1-6.033084-27.38092 68.4523 68.4523 0 0 1 136.9046 0A64.507591 64.507591 0 0 1 422.316623-32.16678h177.279855a64.507591 64.507591 0 0 1-6.033084-27.38092 68.4523 68.4523 0 0 1 136.9046 0 64.507591 64.507591 0 0 1-5.569001 27.38092h64.507592a74.717426 74.717426 0 0 1 74.717425 74.253342V705.72581a74.717426 74.717426 0 0 1-75.645592 73.325176zM678.490654 598.98663a23.668253 23.668253 0 0 0 24.132337-23.204169v-371.266712a23.668253 23.668253 0 0 0-24.132337-23.20417 23.668253 23.668253 0 0 0-24.132336 23.20417v371.266712a23.668253 23.668253 0 0 0 24.132336 23.204169z m-240.395196 232.041695h147.578518v-51.977339H435.775042V829.171992zM321.146444 575.782461a23.668253 23.668253 0 0 0 24.132336 23.204169 23.668253 23.668253 0 0 0 24.132337-23.204169v-371.266712a23.668253 23.668253 0 0 0-24.132337-23.20417 23.668253 23.668253 0 0 0-24.132336 23.20417v371.266712z m213.942443-371.266712a23.668253 23.668253 0 0 0-24.132336-23.20417 23.668253 23.668253 0 0 0-24.132337 23.20417v371.266712a23.668253 23.668253 0 0 0 24.132337 23.204169 23.668253 23.668253 0 0 0 24.132336-23.204169v-371.266712z"  horiz-adv-x="1024" />

    
    <glyph glyph-name="daifahuo" unicode="&#58881;" d="M845.794304 168.823808V676.383744c0 8.76032-7.10144 15.86176-15.860736 15.86176H401.67936c-8.76032 0-15.860736-7.10144-15.860736-15.86176v-103.626752s0-9.591808-9.854976-13.556736L177.145856 452.769792v-268.086272c0-8.759296-7.103488-15.859712-15.86176-15.859712-8.76032 0-15.86176 7.10144-15.86176 15.859712V440.773632c0 8.76032-0.526336 24.590336 4.754432 31.302656 1.635328 2.080768 11.220992 8.763392 18.3296 12.018688l185.58976 99.34848V692.245504c0 17.519616 14.20288 31.722496 31.72352 31.722496h459.97568c17.52064 0 31.722496-14.20288 31.722496-31.722496v-491.698176c-0.001024-17.521664-14.20288-31.72352-31.72352-31.72352z m-475.836416 317.22496c8.76032 0 15.86176-7.102464 15.86176-15.86176v-111.028224c0-8.761344-7.10144-15.86176-15.86176-15.86176H258.92864c-8.76032 0-15.86176 7.10144-15.86176 15.86176s7.10144 15.860736 15.86176 15.860736h95.167488v95.167488c0 8.76032 7.10144 15.86176 15.86176 15.86176z m-47.584256-222.057472c55.994368 0 101.84192-41.592832 109.461504-95.484928 0.54272 0.05632 1.011712 0.318464 1.56672 0.318464h160.212992c7.754752 53.737472 53.542912 95.167488 109.428736 95.167488 61.320192 0 111.029248-49.709056 111.029248-111.029248 0-61.319168-49.709056-111.028224-111.029248-111.028224-55.885824 0-101.673984 41.428992-109.428736 95.167488H433.401856c-0.555008 0-1.026048 0.259072-1.56672 0.316416-7.620608-53.890048-53.466112-95.48288-109.461504-95.48288-61.319168 0-111.028224 49.709056-111.028224 111.028224 0 61.318144 49.709056 111.0272 111.028224 111.0272zM703.04256 73.65632c43.798528 0 79.305728 35.505152 79.305728 79.305728 0 43.799552-35.5072 79.305728-79.305728 79.305728s-79.304704-35.506176-79.304704-79.305728c0-43.800576 35.506176-79.305728 79.304704-79.305728z m-380.668928 0c43.799552 0 79.305728 35.505152 79.305728 79.305728 0 43.799552-35.506176 79.305728-79.305728 79.305728-43.798528 0-79.305728-35.506176-79.305728-79.305728 0-43.800576 35.5072-79.305728 79.305728-79.305728z"  horiz-adv-x="1024" />

    
    <glyph glyph-name="erweima-pc-off" unicode="&#58880;" d="M145.713 750.287h79.628v-79.628h-79.628v79.628zM368.671 893.616h-366.287v-366.287h143.329v-63.702h79.628v63.702h143.329v79.629h63.702v63.702h-63.702v222.957zM289.042 606.958h-207.031v207.031h207.031v-207.031zM145.713 97.342h79.628v-79.628h-79.628v79.628zM798.658 750.287h79.628v-79.628h-79.628v79.628zM512 390.421v-86.048h79.628v79.628h63.702v79.628h-63.702v63.702h-79.628v-64.106zM512 99.212v-81.499h79.628v143.33h63.702v79.628h-143.329v-68.656zM591.628 17.713h63.702v-63.702h-63.702v63.702zM432.372-45.989v-79.628h159.254v79.628h-75.261zM734.957 161.043h-79.628v-143.33h143.329v79.629h-63.702zM798.658-125.616h222.958v79.628h-143.329v63.702h-79.629v-64.106zM1021.616 384v79.628h-143.329v-79.628h74.894zM941.989 97.342h79.628v-79.628h-79.628v79.628zM432.372 606.958h79.628v-79.628h-79.628v79.628zM798.658 463.628v63.702h222.958v366.287h-366.287v-79.628h-143.329v-63.702h143.329v-79.628h-63.702v-63.702h63.702v-79.628h79.628v-63.702h63.702zM734.957 813.989h207.031v-207.031h-207.031v207.031zM734.957 304.372h63.702v-63.702h-63.702v63.702zM878.287 161.043h-79.629v-63.702h143.33v143.329h79.628v63.702h-143.329v-59.556zM432.372 750.287h79.628v-79.628h-79.628v79.628zM225.341 384h63.702v-79.628h-63.702v79.628zM432.372 463.628h-143.33v-79.628h79.629v-79.628h63.702v86.048zM368.671 17.713v143.33h63.702v79.628h-286.659v143.329h-143.329v-79.628h79.628v-63.702h-79.628v-366.287h366.287v79.628h63.702v63.702h-63.702zM289.042-45.989h-207.031v207.033h207.031v-207.033zM432.372 304.372h79.628v-63.702h-79.628v63.702zM655.329 384h79.628v-79.628h-79.628v79.628zM798.658 384h79.628v-79.628h-79.628v79.628z"  horiz-adv-x="1024" />

    
    <glyph glyph-name="huojia" unicode="&#58894;" d="M804.6 797.8c-26.9 0-48.8-21.8-48.8-48.8v-195H268.2V749.1c0 26.9-21.8 48.8-48.8 48.8-26.9 0-48.8-21.8-48.8-48.8v-731.5c0-26.9 21.8-48.8 48.8-48.8 26.9 0 48.8 21.8 48.8 48.8v48.8h487.7v-48.8c0-26.9 21.8-48.8 48.8-48.8 26.9 0 48.8 21.8 48.8 48.8V749.1c-0.1 26.9-22 48.7-48.9 48.7zM268.2 456.5h487.7V359H268.2v97.5z m0-292.6v97.5h487.7v-97.5H268.2z"  horiz-adv-x="1024" />

    
    <glyph glyph-name="yonghu" unicode="&#58912;" d="M592.352-56.448h-179.68c-169.152 0-302.784 0-302.784 85.952V47.2c0 164.416 135.808 298.144 302.784 298.144h179.68c166.976 0 302.816-133.76 302.816-298.144v-17.696c0-85.952-140.32-85.952-302.816-85.952z m-98.816 424.544c-132.224 0-239.808 106.016-239.808 236.288S361.312 840.672 493.536 840.672s239.808-105.984 239.808-236.288S625.76 368.096 493.536 368.096z"  horiz-adv-x="1024" />

    
    <glyph glyph-name="leimupinleifenleileibie" unicode="&#59056;" d="M320 384H192c-70.4 0-128-57.6-128-128v-128c0-70.4 57.6-128 128-128h128c70.4 0 128 57.6 128 128V256c0 70.4-57.6 128-128 128z m64-256c0-35.2-28.8-64-64-64H192c-35.2 0-64 28.8-64 64V256c0 35.2 28.8 64 64 64h128c35.2 0 64-28.8 64-64v-128zM768 832H640c-70.4 0-128-57.6-128-128v-128c0-70.4 57.6-128 128-128h128c70.4 0 128 57.6 128 128V704c0 70.4-57.6 128-128 128z m64-256c0-35.2-28.8-64-64-64H640c-35.2 0-64 28.8-64 64V704c0 35.2 28.8 64 64 64h128c35.2 0 64-28.8 64-64v-128z m-64-192H640c-70.4 0-128-57.6-128-128v-128c0-70.4 57.6-128 128-128h128c70.4 0 128 57.6 128 128V256c0 70.4-57.6 128-128 128z m64-256c0-35.2-28.8-64-64-64H640c-35.2 0-64 28.8-64 64V256c0 35.2 28.8 64 64 64h128c35.2 0 64-28.8 64-64v-128zM320 832H192c-70.4 0-128-57.6-128-128v-128c0-70.4 57.6-128 128-128h128c70.4 0 128 57.6 128 128V704c0 70.4-57.6 128-128 128z m64-256c0-35.2-28.8-64-64-64H192c-35.2 0-64 28.8-64 64V704c0 35.2 28.8 64 64 64h128c35.2 0 64-28.8 64-64v-128z"  horiz-adv-x="1024" />

    


  </font>
</defs>
</svg>
